<svg width="180" height="180" viewBox="0 0 180 180" fill="none" xmlns="http://www.w3.org/2000/svg">
  <defs>
    <linearGradient id="vaulty-touch-bg" x1="0" y1="0" x2="1" y2="1" gradientUnits="objectBoundingBox">
      <stop offset="0%" stop-color="#14b8a6"/>
      <stop offset="100%" stop-color="#0f766e"/>
    </linearGradient>
    <linearGradient id="vaulty-touch-sh" x1="0" y1="0" x2="0" y2="1" gradientUnits="objectBoundingBox">
      <stop offset="0%" stop-color="white" stop-opacity="0.22"/>
      <stop offset="100%" stop-color="white" stop-opacity="0"/>
    </linearGradient>
  </defs>
  <rect width="180" height="180" rx="40" fill="url(#vaulty-touch-bg)"/>
  <rect width="180" height="100" rx="40" fill="url(#vaulty-touch-sh)"/>

  <path d="M55 40 L105 40 L130 65 L130 130C 130 135.5 125.5 140 120 140H60C54.5 140 50 135.5 50 130V50C50 44.5 54.5 40 55 40Z" fill="white" opacity="0.95"/>
  <path d="M105 40V60C105 63 107 65 110 65H130Z" fill="white" opacity="0.48"/>
  <rect x="70" y="85" width="40" height="11" rx="5.5" fill="url(#vaulty-touch-bg)" opacity="0.70"/>
  <rect x="70" y="105" width="30" height="11" rx="5.5" fill="url(#vaulty-touch-bg)" opacity="0.50"/>
</svg>
